<?xml version="1.0" encoding="UTF-8"?>
<svg id="Layer_1" data-name="Layer 1" xmlns="http://www.w3.org/2000/svg" viewBox="0 0 300 300">
  <defs>
    <style>
      .cls-1, .cls-2 {
        stroke-width: 0px;
      }

      .cls-2 {
        fill: #ff0;
      }
    </style>
  </defs>
  <rect class="cls-1" width="300" height="300" rx="25.69" ry="25.69"/>
  <g>
    <path class="cls-2" d="m173.87,227.53c-1.86-1.2-3.61-2.6-5.27-4.16-7.17-6.86-10.75-15.45-10.75-25.77,0-3.89.42-7.46,1.26-10.74l-43.72-120.51h-25.63L26.77,233.66h23.23l18.11-50.11h66.18l16.96,50.11h24.83l-2.22-6.12Zm-99.25-62.44l26.99-73.92,25.39,73.92h-52.38Z"/>
    <path class="cls-2" d="m269.58,215.49c-1.15.12-2.18.17-3.08.17-2.82,0-4.66-.64-5.53-1.93-.87-1.29-1.31-3-1.31-5.12v-70.28c0-11.55-4.44-20.05-13.32-25.52-8.94-5.46-20.59-8.2-34.91-8.2-12.36,0-23.23,2.96-32.59,8.85-9.37,5.91-14.25,16.4-14.63,31.47h19.14c.75-6.34,2.38-11.1,4.89-14.31,4.47-5.8,12.04-8.71,22.72-8.71,9.24,0,16.35,1.58,21.32,4.75,4.96,3.16,7.44,8.26,7.44,15.27,0,3.44-.45,6.07-1.36,7.89-1.6,3.34-4.75,5.3-9.45,5.91l-32.69,4.09c-11.46,1.45-20.74,5.28-27.79,11.49-4.64,4.09-7.76,9.27-9.33,15.54l14.76,40.67c6.27,4.09,13.76,6.12,22.48,6.12,9.4,0,18.02-2.02,25.84-6.04,7.82-4.02,13.83-8.76,18.01-14.24.68,4.86,1.86,8.62,3.53,11.27,3.19,5.01,8.31,7.52,15.37,7.52,2.89,0,5.17-.12,6.83-.33,1.67-.23,4.11-.8,7.3-1.71v-15.15c-1.29.23-2.51.39-3.64.51Zm-30.41-31.45c0,12.6-5.7,21.65-17.08,27.19-6.76,3.32-13.76,4.99-20.97,4.99-5.92,0-11.04-1.7-15.37-5.11-4.34-3.41-6.5-8.07-6.5-13.97,0-7.81,3.18-13.5,9.52-17.05,3.74-2.12,9.32-3.67,16.75-4.66l12.39-1.6c3.79-.45,7.66-1.22,11.59-2.28,3.95-1.07,7.15-2.39,9.66-4.01v16.48Z"/>
    <path class="cls-1" d="m173.87,227.53c-1.86-1.2-3.61-2.6-5.27-4.16-7.17-6.86-10.75-15.45-10.75-25.77,0-3.89.42-7.46,1.26-10.74l14.76,40.67Z"/>
  </g>
</svg>