<?xml version="1.0" encoding="UTF-8"?>
<svg id="Layer_1" data-name="Layer 1" xmlns="http://www.w3.org/2000/svg" viewBox="0 0 300 300">
  <defs>
    <style>
      .cls-1 {
        fill: none;
        stroke: #000;
        stroke-miterlimit: 10;
        stroke-width: 2px;
      }

      .cls-2, .cls-3 {
        stroke-width: 0px;
      }

      .cls-3 {
        fill: #ff0;
      }
    </style>
  </defs>
  <rect class="cls-3" width="300" height="300"/>
  <g>
    <polyline class="cls-1" points="49.69 275 25 275 25 25 150.09 25"/>
    <polyline class="cls-1" points="256.25 25 275 25 275 275 250.31 275"/>
  </g>
  <g>
    <path class="cls-2" d="m156.34,15.82h3.55l5.25,15.44,5.21-15.44h3.52v18.26h-2.36v-10.78c0-.37,0-.99.02-1.85.02-.86.02-1.79.02-2.77l-5.21,15.4h-2.45l-5.26-15.4v.56c0,.45.01,1.13.04,2.05.02.92.04,1.59.04,2.02v10.78h-2.36V15.82Z"/>
    <path class="cls-2" d="m177.55,15.82h3.55l5.25,15.44,5.21-15.44h3.52v18.26h-2.36v-10.78c0-.37,0-.99.02-1.85.02-.86.02-1.79.02-2.77l-5.21,15.4h-2.45l-5.26-15.4v.56c0,.45.01,1.13.04,2.05.02.92.04,1.59.04,2.02v10.78h-2.36V15.82Z"/>
    <path class="cls-2" d="m200.36,34.08h-2.97l6.46-9.37-6.06-8.89h3.08l4.61,6.99,4.57-6.99h2.94l-6.05,8.89,6.35,9.37h-3.06l-4.87-7.51-5,7.51Z"/>
    <path class="cls-2" d="m217.34,34.08h-2.97l6.46-9.37-6.06-8.89h3.08l4.61,6.99,4.57-6.99h2.94l-6.05,8.89,6.35,9.37h-3.06l-4.87-7.51-5,7.51Z"/>
    <path class="cls-2" d="m233.35,15.82h2.5v18.26h-2.5V15.82Z"/>
    <path class="cls-2" d="m240.42,15.82h2.5v18.26h-2.5V15.82Z"/>
    <path class="cls-2" d="m247.5,15.82h2.5v18.26h-2.5V15.82Z"/>
  </g>
  <g>
    <path class="cls-2" d="m169.85,214.48c-1.54-1-3-2.16-4.38-3.46-5.96-5.71-8.94-12.85-8.94-21.43,0-3.23.35-6.2,1.05-8.93l-36.36-100.22h-21.31l-52.39,139.14h19.32l15.06-41.67h55.04l14.11,41.67h20.65l-1.85-5.09Zm-82.54-51.93l22.45-61.47,21.12,61.47h-43.56Z"/>
    <path class="cls-2" d="m249.45,204.46c-.95.1-1.81.14-2.56.14-2.34,0-3.87-.53-4.6-1.61-.72-1.07-1.09-2.5-1.09-4.26v-58.44c0-9.61-3.69-16.68-11.08-21.23-7.43-4.54-17.12-6.82-29.04-6.82-10.28,0-19.32,2.46-27.1,7.36-7.8,4.91-11.85,13.64-12.16,26.18h15.92c.63-5.27,1.98-9.23,4.07-11.9,3.72-4.83,10.02-7.24,18.9-7.24,7.69,0,13.6,1.32,17.73,3.95,4.13,2.63,6.19,6.87,6.19,12.7,0,2.86-.37,5.04-1.13,6.56-1.33,2.78-3.95,4.4-7.86,4.91l-27.19,3.4c-9.53,1.21-17.24,4.39-23.11,9.56-3.86,3.4-6.46,7.71-7.76,12.92l12.27,33.83c5.21,3.4,11.44,5.09,18.69,5.09,7.82,0,14.99-1.68,21.49-5.02,6.5-3.34,11.5-7.29,14.98-11.84.57,4.04,1.54,7.17,2.93,9.38,2.65,4.16,6.91,6.25,12.78,6.25,2.4,0,4.3-.1,5.68-.28,1.39-.19,3.42-.66,6.07-1.42v-12.6c-1.07.19-2.09.33-3.03.42Zm-25.29-26.15c0,10.47-4.74,18.01-14.2,22.62-5.62,2.76-11.44,4.15-17.44,4.15-4.92,0-9.18-1.41-12.78-4.25-3.61-2.84-5.41-6.71-5.41-11.62,0-6.49,2.64-11.22,7.92-14.18,3.11-1.76,7.75-3.05,13.93-3.87l10.31-1.33c3.15-.37,6.37-1.01,9.64-1.89,3.28-.89,5.95-1.99,8.04-3.33v13.71Z"/>
    <path class="cls-3" d="m169.85,214.48c-1.54-1-3-2.16-4.38-3.46-5.96-5.71-8.94-12.85-8.94-21.43,0-3.23.35-6.2,1.05-8.93l12.27,33.83Z"/>
  </g>
  <g id="Ill4Vd.tif">
    <path class="cls-2" d="m243.92,274.49c1.41,1.21-8.49.43-9.53.43-1.01,0-2.01.14-3.02.11-1.13-.03-2.28-.19-3.42-.26-1.09-.07-2.18-.1-3.28-.14-1.37-.05-2.74-.08-4.11-.15-.95-.05-1.9-.13-2.85-.25-1.06-.14-1.71.18-1.65.92.18,2.05-1.02,3.53-3.19,4.53-.81.38-1.26.87-1.58,1.48-.32.6-.85,1-1.77,1.12-1.2.15-2.33-.55-2.12-1.44.19-.8.55-1.57.97-2.31.62-1.12,1.37-2.2,2.03-3.3.31-.51,0-.95-.78-1.16-1.36-.36-2.73-.71-4.14-.55-.52.06-1.1.2-1.44.46-2.16,1.66-4.23,3.38-6.41,5.02-.83.62-1.87,1.11-2.87,1.6-.8.4-1.68.71-2.52,1.07-1.2.52-2.72-.03-2.73-1.08,0-1.08.29-2.13.41-3.2.03-.26-.1-.54-.15-.81-.36.05-.81.02-1.08.16-.95.51-1.82,1.09-2.74,1.62-1.83,1.05-3.65,2.1-5.53,3.1-.84.45-1.8.78-2.73,1.15-1.03.41-2.62-.83-2.3-1.57.38-.89.91-1.74,1.38-2.61.01-.02.05-.03.06-.05.09-.3.39-.76.22-.88-.5-.37-.9.04-1.23.23-1.88,1.07-3.71,2.19-5.58,3.27-.92.53-1.89,1.02-2.81,1.55-.39.23-.63.64-1.06.77-.44.14-1.11.16-1.57.02-.69-.22-1.01-.72-.74-1.26.48-.94.96-1.88,1.51-2.8,1.47-2.42,2.44-4.99,3.32-7.58.12-.35.44-.64.54-.99.06-.21-.15-.47-.24-.71-.26.08-.56.12-.76.25-1.61,1.04-3.21,2.08-4.78,3.15-.8.54-1.44,1.23-2.33,1.69-3.61,1.84-7.1,3.8-11.24,5.06-1.24.38-2.5.15-3.76.07-1.29-.08-1.67.13-2.27.93-1.14,1.51-2.42,2.97-3.68,4.42-.2.23-.6.37-.94.51-.58.24-1.19.25-1.8-.11-.6-.37-1-.78-.84-1.37.63-2.23,1.39-4.43,2.78-6.43.06-.08.16-.15.18-.24.08-.36.36-.8.17-1.08-.37-.51-1.02-.22-1.55-.12-2.12.37-4.24.73-6.34,1.14-.49.1-.98.3-1.33.55-1.24.89-2.43,1.82-3.62,2.74-1.11.86-2.17,1.75-3.29,2.6-.44.33-.96.64-1.54.82-1.21.38-2.48.67-3.73.98-.26.06-.61.15-.82.07-.45-.16-1.01-.39-1.18-.68-.13-.22.25-.58.44-.87.04-.07.2-.12.32-.13,2.39-.09,3.4-1.56,4.92-2.51.86-.53,1.56-1.2,2.27-1.84.2-.18.38-.59.25-.7-.23-.2-.71-.32-1.07-.34-1.56-.06-3.11,0-4.66-.1-1.58-.1-2.17-.59-2.39-1.74-.12-.63-.54-.95-1.38-.84-1.19.16-2.39.37-3.48.72-3.84,1.25-7.62,2.58-11.44,3.85-1.47.49-3.09.03-3.33-.99-.14-.58.13-1.22.35-1.79.5-1.37,1.09-2.72,1.6-4.09.08-.22-.05-.51-.09-.76-.37.03-.82-.03-1.08.1-.67.33-1.26.75-1.89,1.13-1.92,1.17-3.82,2.37-5.77,3.52-1.17.69-2.4,1.34-3.64,1.97-1,.52-2.06.8-3.43.35-.84-.28-1.41.15-1.87.59-.99.95-1.97,1.91-2.98,2.86-.53.5-1.27.62-2.1.33-.82-.29-1.01-.77-.93-1.4.11-.79-.12-1.65.1-2.41.38-1.28.95-2.51,1.55-3.73.33-.67.79-1.32,1.33-1.9.35-.38.94-.87,1.44-.85.49.02,1.14.59,1.49,1.01.56.66.63.72,1.26.18.19-.17.36-.36.49-.56,2.08-3.23,4.16-6.45,6.2-9.69.15-.23.03-.56.04-.85-.36.14-.82.22-1.08.43-.88.71-1.71,1.45-2.52,2.2-2.16,2-4.34,3.99-6.25,6.13-.65.73-1.69,1.26-2.58,1.86-1.64,1.11-3.33,2.18-4.96,3.3-2.96,2.03-5.85,4.11-8.86,6.1-.85.56-2,.9-3.03,1.31-.67.27-1.35.52-2.07.7-.31.08-.8.02-1.09-.12-.42-.21-.88-.53-.55-.95.26-.34.52-.72.93-.95,1.88-1.05,3.85-2.01,5.71-3.08,1.54-.89,2.95-1.89,4.43-2.83,1.3-.83,2.61-1.64,3.91-2.46.48-.31.96-.61,1.4-.95,1.77-1.38,3.6-2.73,5.27-4.18,1.95-1.69,3.75-3.48,5.64-5.21,1.64-1.49,3.36-2.93,4.99-4.43,1.13-1.04,2.16-2.14,3.23-3.21.07-.07.13-.15.21-.22,1.66-1.56,3.29-3.13,4.99-4.67,1.46-1.32,3.03-2.58,4.5-3.91,1.15-1.03,2.17-2.14,3.34-3.16.41-.35,1.1-.52,1.64-.79.58-.29,1.13-.02,1.43.28.26.26.34.73.21,1.02-.21.46-.62.86-1,1.26-.77.82-1.59,1.62-2.38,2.44-1.21,1.25-2.34,2.54-3.64,3.73-3.03,2.76-5.26,5.9-7.29,9.13-.98,1.56-1.71,3.26-3,4.66-1.71,1.85-2.31,4.12-4.05,5.96-1.19,1.26-1.86,2.79-2.74,4.22-.09.14.04.36.07.55.27,0,.64.08.81-.02,1.74-.96,3.39-1.99,5.17-2.9,2.68-1.37,4.94-3.05,7.29-4.68,2.54-1.76,4.47-3.85,6.35-5.96,2.05-2.3,3.75-4.77,5.69-7.13,2.48-3.02,4.99-6.04,7.6-8.99,1.19-1.34,2.68-2.53,4-3.8.81-.77,1.51-1.61,2.37-2.35.59-.51,1.38-.89,2.08-1.33.26,0,.51,0,.77,0,1.3.63,1.45,1.29.6,2.14-2.21,2.25-4.4,4.51-6.57,6.78-1.98,2.07-4.05,4.09-5.84,6.26-1.91,2.31-3.58,4.74-5.28,7.16-1.47,2.1-2.79,4.26-4.24,6.37-1.66,2.42-2.57,5.08-3.83,7.63-.12.24.11.58.17.88.38-.02.86.06,1.11-.08,3.2-1.7,7.08-2.48,10.71-3.56,1.8-.53,3.83-1.08,6.05-.64.31.06.66.1.93.24,1.01.5,1.54.98.82,1.82-.15.17-.39.3-.48.49-.08.17-.13.45,0,.56.18.15.57.27.82.25,2.46-.24,4.91-.49,7.34-.81.58-.08,1.22-.3,1.59-.61,2.4-2.02,4.73-4.09,7.08-6.14,1.08-.94,2.17-1.87,3.23-2.81,2.9-2.58,5.78-5.16,8.69-7.74,1.19-1.06,2.46-2.07,3.63-3.14,2.37-2.17,4.71-4.36,7.06-6.54.43-.4.86-.8,1.27-1.22.58-.59,1.12-1.21,1.72-1.79.31-.3.69-.55,1.08-.79.47-.28,1.07-.21,1.45.12.34.29.72.78.62,1.07-.28.78-.88,1.47-1.21,2.23-.47,1.11-.7,2.29-1.24,3.37-.74,1.5-1.67,2.93-2.52,4.39-1.08,1.86-2.11,3.73-3.26,5.56-1.36,2.16-2.79,4.3-4.25,6.43-2.02,2.94-4.1,5.85-6.13,8.79-.12.18-.13.56.02.66.21.13.7.18.95.1,1.69-.55,3.37-1.11,5.01-1.73,1.32-.5,2.7-.98,3.84-1.66,2.67-1.59,5.24-3.27,7.8-4.95,1.26-.83,2.45-1.73,3.61-2.63,3.74-2.91,6.27-6.38,8.11-10.21,1.31-2.73,2.84-5.39,4.88-7.86,1.68-2.03,3.82-3.71,6.15-5.28.66-.45,1.42-.38,2.16.04.7.4,1.19.84,1.19,1.55-.02,3.03-2.14,5.25-4.34,7.47-1.42,1.43-2.76,2.92-4.15,4.37-1.39,1.45-2.87,2.86-4.18,4.35-.89,1.02-1.59,2.15-2.31,3.25-1.27,1.96-2.51,3.92-3.69,5.91-.27.46-.2,1.03-.39,1.53-.51,1.35-1.06,2.68-1.61,4.01-.2.5-.48.97-.66,1.47-.05.15.04.44.2.53.15.09.55.08.72,0,2.01-1.02,3.96-2.1,6-3.1.9-.44,1.95-.71,2.95-1.04.75-.24,1.45.03,1.86.49.3.33.48.87.33,1.2-.33.74-.9,1.41-1.38,2.1-.11.16-.29.31-.31.48-.02.16.06.41.21.5.16.09.51.08.69.01.4-.15.75-.37,1.11-.57,2.45-1.32,4.91-2.63,7.36-3.96.56-.3,1.14-.61,1.56-1,.68-.64,2.08-.54,2.86-.22.73.3,1.08,1.21.75,1.89-.27.57-.63,1.11-.89,1.69-.09.2-.12.47-.01.68.18.34.44.59.96.22,1.58-1.13,3.21-2.22,4.81-3.33.9-.62.84-1.02.12-1.81-.32-.35-.36-.88-.3-1.31.06-.49.63-.69,1.3-.67.6.02,1.22.16,1.8.12.58-.04,1.31-.13,1.64-.41,2.02-1.72,4.04-3.44,5.89-5.27,2.68-2.65,5.18-5.41,7.82-8.08,1.19-1.21,2.6-2.3,3.82-3.49.79-.78,1.35-1.69,2.15-2.45.36-.34,1.03-.67,1.62-.68.81-.02,1.44.52,1.6,1.11.12.41-.04.87-.19,1.27-.85,2.29-1.83,4.53-3.13,6.67-1.04,1.73-2.14,3.43-3.18,5.16-1.22,2.02-2.41,4.05-3.59,6.08-.38.66.01,1.07,1.02,1.1,2.01.05,4.02.07,6.03.15,3.31.12,6.63.29,9.94.42.91.04,3.51.18,4.88.49s3.97.76,5.38,1.97Zm-99.7-.78c1.46-.13,2.14-.78,2.67-1.54,1.09-1.59,2.14-3.21,3.22-4.8.94-1.4,1.93-2.78,2.86-4.18.99-1.5,1.96-3.02,2.9-4.55.65-1.05,1.25-2.13,1.87-3.2.24-.43-.15-.52-.58-.46-.28.04-.55.19-.73.36-.49.45-.92.93-1.4,1.39-1.71,1.62-3.39,3.24-5.14,4.83-2.35,2.13-4.79,4.2-7.13,6.34-2.15,1.96-4.23,3.98-6.32,5.98-.17.17-.3.53-.17.66.15.16.65.27.93.23,1.08-.14,2.24-.2,3.17-.55,1.27-.47,2.36-1.17,3.84-.52Zm67.24-2.59c.06.07.13.14.19.22.44-.33,1.03-.6,1.28-1,.67-1.08,1.16-2.22,1.77-3.32.47-.85,1.03-1.67,1.53-2.51.48-.79.94-1.59,1.4-2.4.38-.68.76-1.36,1.11-2.05.05-.1-.03-.25-.06-.38-.11.07-.25.13-.34.21-1.02.99-2.07,1.97-3.05,2.98-1.54,1.59-3.01,3.21-4.55,4.8-.81.83-1.71,1.61-2.56,2.42-.39.37-.28.75.25.81,1.01.1,2.02.15,3.03.23Zm-29.45-17.5c.08.02.16.03.23.05.19-.14.39-.27.56-.42,1.59-1.37,2.98-2.84,4.11-4.46.33-.47.66-.95.91-1.45.07-.14-.13-.37-.2-.56-.19.08-.45.11-.56.23-1.01,1.05-2.06,2.08-2.95,3.19-.79.97-1.4,2.02-2.07,3.05-.07.1-.02.25-.03.37Zm-102.92,25.12c-.23-.28-.3-.45-.46-.53-.09-.05-.4.02-.45.1-.38.58-.76,1.16-1.06,1.77-.07.13.17.36.26.55.21-.05.54-.06.62-.17.41-.57.75-1.17,1.09-1.72Z"/>
  </g>
</svg>